<svg xmlns="http://www.w3.org/2000/svg" viewBox="0 0 32 32" fill="none">
  <defs>
    <linearGradient id="g" x1="0" y1="0" x2="32" y2="32" gradientUnits="userSpaceOnUse">
      <stop offset="0" stop-color="#3b82f6" />
      <stop offset="1" stop-color="#2563eb" />
    </linearGradient>
  </defs>
  <rect width="32" height="32" rx="8" fill="url(#g)" />
  <path
    d="M16 8c-2.2 0-4 1.4-4.4 3.3-1.6.4-2.8 1.9-2.8 3.6 0 .6.1 1.1.4 1.6-.8.6-1.2 1.6-1.2 2.6 0 1.9 1.5 3.4 3.4 3.5.3 1.4 1.6 2.4 3.1 2.4.6 0 1.1-.2 1.5-.4V8.4c-.3-.2-.6-.3-1-.4z"
    stroke="white"
    stroke-width="1.3"
    stroke-linecap="round"
    stroke-linejoin="round"
    fill="none"
  />
  <path
    d="M16 8c2.2 0 4 1.4 4.4 3.3 1.6.4 2.8 1.9 2.8 3.6 0 .6-.1 1.1-.4 1.6.8.6 1.2 1.6 1.2 2.6 0 1.9-1.5 3.4-3.4 3.5-.3 1.4-1.6 2.4-3.1 2.4-.6 0-1.1-.2-1.5-.4V8.4c.3-.2.6-.3 1-.4z"
    stroke="white"
    stroke-width="1.3"
    stroke-linecap="round"
    stroke-linejoin="round"
    fill="none"
  />
</svg>
